<svg width="200" height="30" viewBox="0 0 200 30" fill="none" xmlns="http://www.w3.org/2000/svg">
<g clip-path="url(#clip0_141_54)">
<path d="M21.2416 20.7347C21.2608 20.4917 21.2697 20.2472 21.2697 20C21.2697 18.1778 20.7512 16.4694 19.8473 15C19.3318 14.1611 18.6893 13.3986 17.9448 12.7375C17.3422 12.2014 16.6745 11.7306 15.9523 11.3375C15.1281 10.8903 14.2344 10.5431 13.2906 10.3153C12.4413 10.1097 11.5521 10 10.6348 10C9.71759 10 8.82839 10.1097 7.97908 10.3153C7.03524 10.5431 6.14162 10.8903 5.31742 11.3375C4.59514 11.7306 3.92751 12.2014 3.32486 12.7375C2.58043 13.3986 1.93938 14.1611 1.42241 15C0.518449 16.4694 0 18.1778 0 20C0 21.8222 0.518449 23.5292 1.42241 25C1.93938 25.8389 2.5819 26.6 3.32486 27.2625C3.92751 27.7986 4.59514 28.2694 5.31742 28.6625C6.14162 29.1097 7.03524 29.4569 7.97908 29.6847C8.82839 29.8903 9.71759 30 10.6348 30C11.5521 30 12.4413 29.8903 13.2906 29.6847C14.2344 29.4569 15.1281 29.1097 15.9523 28.6625C16.6745 28.2694 17.3422 27.7986 17.9448 27.2625C18.6893 26.6 19.3303 25.8389 19.8473 25C20.2668 24.3181 20.6021 23.5861 20.8413 22.8139H15.0306C14.1916 23.9722 12.846 24.7819 11.2936 24.9611C11.078 24.9875 10.8579 25 10.6348 25C10.4118 25 10.1917 24.9875 9.97607 24.9611C7.60687 24.6861 5.72066 22.9458 5.37355 20.7347H21.2416ZM6.39863 16.9792C6.79891 16.4833 7.29521 16.0611 7.86092 15.7347C8.49162 15.3708 9.208 15.1278 9.97607 15.0389C10.1917 15.0125 10.4118 15 10.6348 15C10.8579 15 11.078 15.0125 11.2936 15.0389C12.0617 15.1278 12.7781 15.3708 13.4088 15.7347C13.9745 16.0611 14.4708 16.4833 14.8711 16.9792H6.39863Z" fill="#00AAA5"/>
<path d="M33.7111 24.9611C33.4954 24.9875 33.2754 25 33.0523 25C32.8293 25 32.6092 24.9875 32.3936 24.9611C29.7673 24.6569 27.7349 22.5514 27.7349 20C27.7349 17.4486 29.7673 15.3431 32.3936 15.0389C32.6092 15.0125 32.8293 15 33.0523 15C33.2754 15 33.4954 15.0125 33.7111 15.0389C35.3994 15.2347 36.8439 16.175 37.6578 17.5H43.3519C43.1096 16.6125 42.7404 15.7736 42.2648 15C41.7493 14.1611 41.1067 13.3986 40.3623 12.7375C39.7597 12.2014 39.092 11.7306 38.3697 11.3375C37.5455 10.8903 36.6519 10.5431 35.7081 10.3153C34.8588 10.1097 33.9696 10 33.0523 10C32.1351 10 31.2459 10.1097 30.3966 10.3153C29.4527 10.5431 28.5591 10.8903 27.7349 11.3375C27.0126 11.7306 26.345 12.2014 25.7423 12.7375C24.9979 13.3986 24.3569 14.1611 23.8399 15C22.9359 16.4694 22.4175 18.1778 22.4175 20C22.4175 21.8222 22.9359 23.5292 23.8399 25C24.3569 25.8389 24.9994 26.6 25.7423 27.2625C26.345 27.7986 27.0126 28.2694 27.7349 28.6625C28.5591 29.1097 29.4527 29.4569 30.3966 29.6847C31.2459 29.8903 32.1351 30 33.0523 30C33.9696 30 34.8588 29.8903 35.7081 29.6847C36.6519 29.4569 37.5455 29.1097 38.3697 28.6625C39.092 28.2694 39.7597 27.7986 40.3623 27.2625C41.1067 26.6 41.7478 25.8389 42.2648 25C42.7404 24.2264 43.1096 23.3875 43.3519 22.5H37.6578C36.8439 23.825 35.3994 24.7653 33.7111 24.9611Z" fill="#00AAA5"/>
<path d="M64.3468 15C63.8313 14.1611 63.1888 13.3986 62.4443 12.7375C61.8417 12.2014 61.1741 11.7306 60.4518 11.3375C59.6276 10.8903 58.734 10.5431 57.7901 10.3153C56.9408 10.1097 56.0516 10 55.1344 10C54.2171 10 53.3279 10.1097 52.4786 10.3153C51.5348 10.5431 50.6411 10.8903 49.8169 11.3375C49.0946 11.7306 48.427 12.2014 47.8244 12.7375C47.0799 13.3986 46.4389 14.1611 45.9219 15C45.018 16.4694 44.4995 18.1778 44.4995 20C44.4995 21.8222 45.018 23.5292 45.9219 25C46.4389 25.8389 47.0814 26.6 47.8244 27.2625C48.427 27.7986 49.0946 28.2694 49.8169 28.6625C50.6411 29.1097 51.5348 29.4569 52.4786 29.6847C53.3279 29.8903 54.2171 30 55.1344 30C56.0516 30 56.9408 29.8903 57.7901 29.6847C58.734 29.4569 59.6276 29.1097 60.4518 28.6625C61.1741 28.2694 61.8417 27.7986 62.4443 27.2625C63.1888 26.6 63.8298 25.8389 64.3468 25C65.2507 23.5292 65.7692 21.8208 65.7692 20C65.7692 18.1792 65.2507 16.4694 64.3468 15ZM55.7931 24.9611C55.5775 24.9875 55.3574 25 55.1344 25C54.9113 25 54.6912 24.9875 54.4756 24.9611C51.8494 24.6569 49.8169 22.5514 49.8169 20C49.8169 17.4486 51.8494 15.3431 54.4756 15.0389C54.6912 15.0125 54.9113 15 55.1344 15C55.3574 15 55.5775 15.0125 55.7931 15.0389C58.4193 15.3431 60.4518 17.4486 60.4518 20C60.4518 22.5514 58.4193 24.6569 55.7931 24.9611Z" fill="#00AAA5"/>
<path d="M177.574 20.7347C177.593 20.4917 177.602 20.2472 177.602 20C177.602 18.1778 177.083 16.4694 176.18 15C175.664 14.1611 175.021 13.3986 174.277 12.7375C173.674 12.2014 173.007 11.7306 172.285 11.3375C171.46 10.8903 170.567 10.5431 169.623 10.3153C168.774 10.1097 167.884 10 166.967 10C166.05 10 165.161 10.1097 164.311 10.3153C163.368 10.5431 162.474 10.8903 161.65 11.3375C160.927 11.7306 160.26 12.2014 159.657 12.7375C158.913 13.3986 158.272 14.1611 157.755 15C156.851 16.4694 156.332 18.1778 156.332 20C156.332 21.8222 156.851 23.5292 157.755 25C158.272 25.8389 158.914 26.6 159.657 27.2625C160.26 27.7986 160.927 28.2694 161.65 28.6625C162.474 29.1097 163.368 29.4569 164.311 29.6847C165.161 29.8903 166.05 30 166.967 30C167.884 30 168.774 29.8903 169.623 29.6847C170.567 29.4569 171.46 29.1097 172.285 28.6625C173.007 28.2694 173.674 27.7986 174.277 27.2625C175.021 26.6 175.663 25.8389 176.18 25C176.599 24.3181 176.934 23.5861 177.174 22.8139H171.363C170.524 23.9722 169.178 24.7819 167.626 24.9611C167.41 24.9875 167.19 25 166.967 25C166.744 25 166.524 24.9875 166.308 24.9611C163.939 24.6861 162.053 22.9458 161.706 20.7347H177.574ZM162.731 16.9792C163.131 16.4833 163.627 16.0611 164.193 15.7347C164.824 15.3708 165.54 15.1278 166.308 15.0389C166.524 15.0125 166.744 15 166.967 15C167.19 15 167.41 15.0125 167.626 15.0389C168.394 15.1278 169.11 15.3708 169.741 15.7347C170.307 16.0611 170.803 16.4833 171.203 16.9792H162.731ZM200 20C200 21.8208 199.482 23.5292 198.578 25C198.061 25.8389 197.42 26.6 196.675 27.2625C196.073 27.7986 195.405 28.2694 194.683 28.6625C193.858 29.1097 192.965 29.4569 192.021 29.6847C191.172 29.8903 190.283 30 189.365 30C188.448 30 187.559 29.8903 186.709 29.6847C185.766 29.4569 184.872 29.1097 184.048 28.6625C183.326 28.2694 182.658 27.7986 182.055 27.2625C181.312 26.6 180.67 25.8389 180.153 25C180.038 24.8139 179.93 24.6222 179.828 24.4292H186.897C187.449 24.7014 188.06 24.8861 188.706 24.9611C188.922 24.9875 189.142 25 189.365 25C189.588 25 189.808 24.9875 190.024 24.9611C191.712 24.7653 193.157 23.825 193.971 22.5H179.066C178.847 21.7014 178.73 20.8639 178.73 20C178.73 18.1778 179.249 16.4694 180.153 15C180.67 14.1611 181.311 13.3986 182.055 12.7375C182.658 12.2014 183.326 11.7306 184.048 11.3375C184.872 10.8903 185.766 10.5431 186.709 10.3153C187.559 10.1097 188.448 10 189.365 10C190.283 10 191.172 10.1097 192.021 10.3153C192.965 10.5431 193.858 10.8903 194.683 11.3375C195.405 11.7306 196.073 12.2014 196.675 12.7375C197.42 13.3986 198.062 14.1611 198.578 15C198.691 15.1861 198.801 15.375 198.901 15.5694H191.83C191.278 15.2972 190.669 15.1139 190.024 15.0389C189.808 15.0125 189.588 15 189.365 15C189.142 15 188.922 15.0125 188.706 15.0389C187.018 15.2347 185.574 16.175 184.76 17.5H199.665C199.883 18.2986 200 19.1361 200 20ZM88.0536 20C88.0536 21.8208 87.5352 23.5292 86.6312 25C86.1142 25.8389 85.4732 26.6 84.7288 27.2625C84.1261 27.7986 83.4585 28.2694 82.7362 28.6625C81.912 29.1097 81.0184 29.4569 80.0745 29.6847C79.2252 29.8903 78.336 30 77.4188 30C76.5015 30 75.6123 29.8903 74.763 29.6847C73.8192 29.4569 72.9256 29.1097 72.1014 28.6625C71.3791 28.2694 70.7114 27.7986 70.1088 27.2625C69.3658 26.6 68.7233 25.8389 68.2063 25C68.0911 24.8139 67.9833 24.6222 67.8814 24.4292H74.9506C75.503 24.7014 76.1131 24.8861 76.76 24.9611C76.9757 24.9875 77.1957 25 77.4188 25C77.6418 25 77.8619 24.9875 78.0775 24.9611C79.7658 24.7653 81.2104 23.825 82.0243 22.5H67.1192C66.9006 21.7014 66.7839 20.8639 66.7839 20C66.7839 18.1778 67.3024 16.4694 68.2063 15C68.7233 14.1611 69.3644 13.3986 70.1088 12.7375C70.7114 12.2014 71.3791 11.7306 72.1014 11.3375C72.9256 10.8903 73.8192 10.5431 74.763 10.3153C75.6123 10.1097 76.5015 10 77.4188 10C78.336 10 79.2252 10.1097 80.0745 10.3153C81.0184 10.5431 81.912 10.8903 82.7362 11.3375C83.4585 11.7306 84.1261 12.2014 84.7288 12.7375C85.4732 13.3986 86.1157 14.1611 86.6312 15C86.7449 15.1861 86.8542 15.375 86.9547 15.5694H79.884C79.3316 15.2972 78.723 15.1139 78.0775 15.0389C77.8619 15.0125 77.6418 15 77.4188 15C77.1957 15 76.9757 15.0125 76.76 15.0389C75.0717 15.2347 73.6272 16.175 72.8133 17.5H87.7183C87.9369 18.2986 88.0536 19.1361 88.0536 20ZM131.32 15C130.803 14.1611 130.162 13.4 129.417 12.7375C128.815 12.2014 128.147 11.7306 127.425 11.3375C126.6 10.8903 125.707 10.5431 124.763 10.3153C123.914 10.1097 123.025 10 122.107 10C121.19 10 120.301 10.1097 119.452 10.3153C118.508 10.5431 117.614 10.8903 116.79 11.3375C116.068 11.7306 115.4 12.2014 114.797 12.7375C114.054 13.4 113.412 14.1611 112.895 15C111.991 16.4708 111.472 18.1792 111.472 20C111.472 21.8208 111.991 23.5306 112.895 25C113.412 25.8389 114.053 26.6014 114.797 27.2625C115.4 27.7986 116.068 28.2694 116.79 28.6625C117.614 29.1097 118.508 29.4569 119.452 29.6847C120.301 29.8903 121.19 30 122.107 30C123.025 30 123.914 29.8903 124.763 29.6847C125.707 29.4569 126.6 29.1097 127.425 28.6625V30H132.742V20C132.742 18.1792 132.224 16.4708 131.32 15ZM122.766 24.9611C122.55 24.9875 122.33 25 122.107 25C121.884 25 121.664 24.9875 121.448 24.9611C118.822 24.6569 116.79 22.5514 116.79 20C116.79 17.4486 118.822 15.3431 121.448 15.0389C121.664 15.0125 121.884 15 122.107 15C122.33 15 122.55 15.0125 122.766 15.0389C125.392 15.3431 127.425 17.4486 127.425 20C127.425 22.5514 125.392 24.6569 122.766 24.9611ZM149.818 0V11.3375C148.994 10.8903 148.101 10.5431 147.157 10.3153C146.307 10.1097 145.418 10 144.501 10C143.584 10 142.695 10.1097 141.845 10.3153C140.901 10.5431 140.008 10.8903 139.184 11.3375C138.461 11.7306 137.794 12.2014 137.191 12.7375C136.447 13.3986 135.806 14.1611 135.289 15C134.385 16.4694 133.866 18.1778 133.866 20C133.866 21.8222 134.385 23.5292 135.289 25C135.806 25.8389 136.448 26.6 137.191 27.2625C137.794 27.7986 138.461 28.2694 139.184 28.6625C140.008 29.1097 140.901 29.4569 141.845 29.6847C142.695 29.8903 143.584 30 144.501 30C145.418 30 146.307 29.8903 147.157 29.6847C148.101 29.4569 148.994 29.1097 149.818 28.6625C150.541 28.2694 151.208 27.7986 151.811 27.2625C152.555 26.6 153.196 25.8389 153.713 25C154.617 23.5292 155.136 21.8208 155.136 20V0H149.818ZM145.16 24.9611C144.944 24.9875 144.724 25 144.501 25C144.278 25 144.058 24.9875 143.842 24.9611C141.216 24.6569 139.184 22.5514 139.184 20C139.184 17.4486 141.216 15.3431 143.842 15.0389C144.058 15.0125 144.278 15 144.501 15C144.724 15 144.944 15.0125 145.16 15.0389C147.786 15.3431 149.818 17.4472 149.818 20C149.818 22.5528 147.786 24.6569 145.16 24.9611ZM110.338 20V30H105.021V20C105.021 17.4486 102.988 15.3431 100.362 15.0389C100.146 15.0125 99.9262 15 99.7032 15C99.4802 15 99.2601 15.0125 99.0444 15.0389C96.4182 15.3431 94.3858 17.4486 94.3858 20V30H89.0684V0H94.3858V11.3375C95.21 10.8903 96.1036 10.5431 97.0474 10.3153C97.8968 10.1097 98.7859 10 99.7032 10C100.62 10 101.51 10.1097 102.359 10.3153C103.303 10.5431 104.196 10.8903 105.021 11.3375C105.743 11.7306 106.411 12.2014 107.013 12.7375C107.758 13.4 108.399 14.1611 108.916 15C109.82 16.4708 110.338 18.1792 110.338 20Z" fill="white"/>
</g>
<defs>
<clipPath id="clip0_141_54">
<rect width="200" height="30" fill="white"/>
</clipPath>
</defs>
</svg>
