<svg width="200" height="30" viewBox="0 0 200 30" fill="none" xmlns="http://www.w3.org/2000/svg">
<g clip-path="url(#clip0_22_57)">
<path d="M21.2416 20.7347C21.2608 20.4917 21.2697 20.2472 21.2697 20C21.2697 18.1778 20.7512 16.4694 19.8473 15C19.3318 14.1611 18.6893 13.3986 17.9448 12.7375C17.3422 12.2014 16.6745 11.7306 15.9523 11.3375C15.1281 10.8903 14.2344 10.5431 13.2906 10.3153C12.4413 10.1097 11.5521 10 10.6348 10C9.71759 10 8.82839 10.1097 7.97908 10.3153C7.03524 10.5431 6.14162 10.8903 5.31742 11.3375C4.59514 11.7306 3.92751 12.2014 3.32486 12.7375C2.58043 13.3986 1.93938 14.1611 1.42241 15C0.518449 16.4694 0 18.1778 0 20C0 21.8222 0.518449 23.5292 1.42241 25C1.93938 25.8389 2.5819 26.6 3.32486 27.2625C3.92751 27.7986 4.59514 28.2694 5.31742 28.6625C6.14162 29.1097 7.03524 29.4569 7.97908 29.6847C8.82839 29.8903 9.71759 30 10.6348 30C11.5521 30 12.4413 29.8903 13.2906 29.6847C14.2344 29.4569 15.1281 29.1097 15.9523 28.6625C16.6745 28.2694 17.3422 27.7986 17.9448 27.2625C18.6893 26.6 19.3303 25.8389 19.8473 25C20.2668 24.3181 20.6021 23.5861 20.8413 22.8139H15.0306C14.1916 23.9722 12.846 24.7819 11.2936 24.9611C11.078 24.9875 10.8579 25 10.6348 25C10.4118 25 10.1917 24.9875 9.97607 24.9611C7.60687 24.6861 5.72066 22.9458 5.37355 20.7347H21.2416ZM6.39863 16.9792C6.79891 16.4833 7.29521 16.0611 7.86092 15.7347C8.49162 15.3708 9.208 15.1278 9.97607 15.0389C10.1917 15.0125 10.4118 15 10.6348 15C10.8579 15 11.078 15.0125 11.2936 15.0389C12.0617 15.1278 12.7781 15.3708 13.4088 15.7347C13.9745 16.0611 14.4708 16.4833 14.8711 16.9792H6.39863Z" fill="#00AAA5"/>
<path d="M33.711 24.9611C33.4953 24.9875 33.2752 25 33.0522 25C32.8292 25 32.6091 24.9875 32.3934 24.9611C29.7672 24.6569 27.7348 22.5514 27.7348 20C27.7348 17.4486 29.7672 15.3431 32.3934 15.0389C32.6091 15.0125 32.8292 15 33.0522 15C33.2752 15 33.4953 15.0125 33.711 15.0389C35.3992 15.2347 36.8438 16.175 37.6577 17.5H43.3517C43.1095 16.6125 42.7402 15.7736 42.2646 15C41.7491 14.1611 41.1066 13.3986 40.3622 12.7375C39.7595 12.2014 39.0919 11.7306 38.3696 11.3375C37.5454 10.8903 36.6518 10.5431 35.708 10.3153C34.8586 10.1097 33.9695 10 33.0522 10C32.1349 10 31.2458 10.1097 30.3964 10.3153C29.4526 10.5431 28.559 10.8903 27.7348 11.3375C27.0125 11.7306 26.3449 12.2014 25.7422 12.7375C24.9978 13.3986 24.3567 14.1611 23.8398 15C22.9358 16.4694 22.4174 18.1778 22.4174 20C22.4174 21.8222 22.9358 23.5292 23.8398 25C24.3567 25.8389 24.9993 26.6 25.7422 27.2625C26.3449 27.7986 27.0125 28.2694 27.7348 28.6625C28.559 29.1097 29.4526 29.4569 30.3964 29.6847C31.2458 29.8903 32.1349 30 33.0522 30C33.9695 30 34.8586 29.8903 35.708 29.6847C36.6518 29.4569 37.5454 29.1097 38.3696 28.6625C39.0919 28.2694 39.7595 27.7986 40.3622 27.2625C41.1066 26.6 41.7477 25.8389 42.2646 25C42.7402 24.2264 43.1095 23.3875 43.3517 22.5H37.6577C36.8438 23.825 35.3992 24.7653 33.711 24.9611Z" fill="#00AAA5"/>
<path d="M64.3467 15C63.8312 14.1611 63.1887 13.3986 62.4442 12.7375C61.8416 12.2014 61.174 11.7306 60.4517 11.3375C59.6275 10.8903 58.7339 10.5431 57.79 10.3153C56.9407 10.1097 56.0515 10 55.1343 10C54.217 10 53.3278 10.1097 52.4785 10.3153C51.5347 10.5431 50.641 10.8903 49.8168 11.3375C49.0946 11.7306 48.4269 12.2014 47.8243 12.7375C47.0798 13.3986 46.4388 14.1611 45.9218 15C45.0179 16.4694 44.4994 18.1778 44.4994 20C44.4994 21.8222 45.0179 23.5292 45.9218 25C46.4388 25.8389 47.0813 26.6 47.8243 27.2625C48.4269 27.7986 49.0946 28.2694 49.8168 28.6625C50.641 29.1097 51.5347 29.4569 52.4785 29.6847C53.3278 29.8903 54.217 30 55.1343 30C56.0515 30 56.9407 29.8903 57.79 29.6847C58.7339 29.4569 59.6275 29.1097 60.4517 28.6625C61.174 28.2694 61.8416 27.7986 62.4442 27.2625C63.1887 26.6 63.8297 25.8389 64.3467 25C65.2507 23.5292 65.7691 21.8208 65.7691 20C65.7691 18.1792 65.2507 16.4694 64.3467 15ZM55.793 24.9611C55.5774 24.9875 55.3573 25 55.1343 25C54.9112 25 54.6911 24.9875 54.4755 24.9611C51.8493 24.6569 49.8168 22.5514 49.8168 20C49.8168 17.4486 51.8493 15.3431 54.4755 15.0389C54.6911 15.0125 54.9112 15 55.1343 15C55.3573 15 55.5774 15.0125 55.793 15.0389C58.4192 15.3431 60.4517 17.4486 60.4517 20C60.4517 22.5514 58.4192 24.6569 55.793 24.9611Z" fill="#00AAA5"/>
<path d="M177.574 20.7347C177.593 20.4917 177.602 20.2472 177.602 20C177.602 18.1778 177.083 16.4694 176.179 15C175.664 14.1611 175.021 13.3986 174.277 12.7375C173.674 12.2014 173.007 11.7306 172.284 11.3375C171.46 10.8903 170.567 10.5431 169.623 10.3153C168.773 10.1097 167.884 10 166.967 10C166.05 10 165.161 10.1097 164.311 10.3153C163.367 10.5431 162.474 10.8903 161.65 11.3375C160.927 11.7306 160.26 12.2014 159.657 12.7375C158.913 13.3986 158.272 14.1611 157.755 15C156.851 16.4694 156.332 18.1778 156.332 20C156.332 21.8222 156.851 23.5292 157.755 25C158.272 25.8389 158.914 26.6 159.657 27.2625C160.26 27.7986 160.927 28.2694 161.65 28.6625C162.474 29.1097 163.367 29.4569 164.311 29.6847C165.161 29.8903 166.05 30 166.967 30C167.884 30 168.773 29.8903 169.623 29.6847C170.567 29.4569 171.46 29.1097 172.284 28.6625C173.007 28.2694 173.674 27.7986 174.277 27.2625C175.021 26.6 175.662 25.8389 176.179 25C176.599 24.3181 176.934 23.5861 177.173 22.8139H171.363C170.524 23.9722 169.178 24.7819 167.626 24.9611C167.41 24.9875 167.19 25 166.967 25C166.744 25 166.524 24.9875 166.308 24.9611C163.939 24.6861 162.053 22.9458 161.706 20.7347H177.574ZM162.731 16.9792C163.131 16.4833 163.627 16.0611 164.193 15.7347C164.824 15.3708 165.54 15.1278 166.308 15.0389C166.524 15.0125 166.744 15 166.967 15C167.19 15 167.41 15.0125 167.626 15.0389C168.394 15.1278 169.11 15.3708 169.741 15.7347C170.307 16.0611 170.803 16.4833 171.203 16.9792H162.731ZM200 20C200 21.8208 199.482 23.5292 198.578 25C198.061 25.8389 197.42 26.6 196.675 27.2625C196.072 27.7986 195.405 28.2694 194.683 28.6625C193.858 29.1097 192.965 29.4569 192.021 29.6847C191.172 29.8903 190.282 30 189.365 30C188.448 30 187.559 29.8903 186.709 29.6847C185.766 29.4569 184.872 29.1097 184.048 28.6625C183.325 28.2694 182.658 27.7986 182.055 27.2625C181.312 26.6 180.67 25.8389 180.153 25C180.038 24.8139 179.93 24.6222 179.828 24.4292H186.897C187.449 24.7014 188.059 24.8861 188.706 24.9611C188.922 24.9875 189.142 25 189.365 25C189.588 25 189.808 24.9875 190.024 24.9611C191.712 24.7653 193.157 23.825 193.971 22.5H179.066C178.847 21.7014 178.73 20.8639 178.73 20C178.73 18.1778 179.249 16.4694 180.153 15C180.67 14.1611 181.311 13.3986 182.055 12.7375C182.658 12.2014 183.325 11.7306 184.048 11.3375C184.872 10.8903 185.766 10.5431 186.709 10.3153C187.559 10.1097 188.448 10 189.365 10C190.282 10 191.172 10.1097 192.021 10.3153C192.965 10.5431 193.858 10.8903 194.683 11.3375C195.405 11.7306 196.072 12.2014 196.675 12.7375C197.42 13.3986 198.062 14.1611 198.578 15C198.691 15.1861 198.801 15.375 198.901 15.5694H191.83C191.278 15.2972 190.669 15.1139 190.024 15.0389C189.808 15.0125 189.588 15 189.365 15C189.142 15 188.922 15.0125 188.706 15.0389C187.018 15.2347 185.574 16.175 184.76 17.5H199.665C199.883 18.2986 200 19.1361 200 20ZM88.0535 20C88.0535 21.8208 87.5351 23.5292 86.6311 25C86.1141 25.8389 85.4731 26.6 84.7287 27.2625C84.126 27.7986 83.4584 28.2694 82.7361 28.6625C81.9119 29.1097 81.0183 29.4569 80.0744 29.6847C79.2251 29.8903 78.3359 30 77.4187 30C76.5014 30 75.6122 29.8903 74.7629 29.6847C73.8191 29.4569 72.9255 29.1097 72.1013 28.6625C71.379 28.2694 70.7113 27.7986 70.1087 27.2625C69.3657 26.6 68.7232 25.8389 68.2063 25C68.091 24.8139 67.9832 24.6222 67.8813 24.4292H74.9505C75.5029 24.7014 76.113 24.8861 76.7599 24.9611C76.9756 24.9875 77.1956 25 77.4187 25C77.6417 25 77.8618 24.9875 78.0774 24.9611C79.7657 24.7653 81.2103 23.825 82.0242 22.5H67.1191C66.9005 21.7014 66.7838 20.8639 66.7838 20C66.7838 18.1778 67.3023 16.4694 68.2063 15C68.7232 14.1611 69.3643 13.3986 70.1087 12.7375C70.7113 12.2014 71.379 11.7306 72.1013 11.3375C72.9255 10.8903 73.8191 10.5431 74.7629 10.3153C75.6122 10.1097 76.5014 10 77.4187 10C78.3359 10 79.2251 10.1097 80.0744 10.3153C81.0183 10.5431 81.9119 10.8903 82.7361 11.3375C83.4584 11.7306 84.126 12.2014 84.7287 12.7375C85.4731 13.3986 86.1156 14.1611 86.6311 15C86.7448 15.1861 86.8542 15.375 86.9546 15.5694H79.8839C79.3315 15.2972 78.7229 15.1139 78.0774 15.0389C77.8618 15.0125 77.6417 15 77.4187 15C77.1956 15 76.9756 15.0125 76.7599 15.0389C75.0716 15.2347 73.6271 16.175 72.8132 17.5H87.7182C87.9368 18.2986 88.0535 19.1361 88.0535 20ZM131.32 15C130.803 14.1611 130.162 13.4 129.417 12.7375C128.815 12.2014 128.147 11.7306 127.425 11.3375C126.6 10.8903 125.707 10.5431 124.763 10.3153C123.914 10.1097 123.024 10 122.107 10C121.19 10 120.301 10.1097 119.451 10.3153C118.508 10.5431 117.614 10.8903 116.79 11.3375C116.067 11.7306 115.4 12.2014 114.797 12.7375C114.054 13.4 113.412 14.1611 112.895 15C111.991 16.4708 111.472 18.1792 111.472 20C111.472 21.8208 111.991 23.5306 112.895 25C113.412 25.8389 114.053 26.6014 114.797 27.2625C115.4 27.7986 116.067 28.2694 116.79 28.6625C117.614 29.1097 118.508 29.4569 119.451 29.6847C120.301 29.8903 121.19 30 122.107 30C123.024 30 123.914 29.8903 124.763 29.6847C125.707 29.4569 126.6 29.1097 127.425 28.6625V30H132.742V20C132.742 18.1792 132.224 16.4708 131.32 15ZM122.766 24.9611C122.55 24.9875 122.33 25 122.107 25C121.884 25 121.664 24.9875 121.448 24.9611C118.822 24.6569 116.79 22.5514 116.79 20C116.79 17.4486 118.822 15.3431 121.448 15.0389C121.664 15.0125 121.884 15 122.107 15C122.33 15 122.55 15.0125 122.766 15.0389C125.392 15.3431 127.425 17.4486 127.425 20C127.425 22.5514 125.392 24.6569 122.766 24.9611ZM149.818 0V11.3375C148.994 10.8903 148.1 10.5431 147.157 10.3153C146.307 10.1097 145.418 10 144.501 10C143.584 10 142.694 10.1097 141.845 10.3153C140.901 10.5431 140.008 10.8903 139.183 11.3375C138.461 11.7306 137.794 12.2014 137.191 12.7375C136.446 13.3986 135.805 14.1611 135.288 15C134.384 16.4694 133.866 18.1778 133.866 20C133.866 21.8222 134.384 23.5292 135.288 25C135.805 25.8389 136.448 26.6 137.191 27.2625C137.794 27.7986 138.461 28.2694 139.183 28.6625C140.008 29.1097 140.901 29.4569 141.845 29.6847C142.694 29.8903 143.584 30 144.501 30C145.418 30 146.307 29.8903 147.157 29.6847C148.1 29.4569 148.994 29.1097 149.818 28.6625C150.541 28.2694 151.208 27.7986 151.811 27.2625C152.555 26.6 153.196 25.8389 153.713 25C154.617 23.5292 155.136 21.8208 155.136 20V0H149.818ZM145.16 24.9611C144.944 24.9875 144.724 25 144.501 25C144.278 25 144.058 24.9875 143.842 24.9611C141.216 24.6569 139.183 22.5514 139.183 20C139.183 17.4486 141.216 15.3431 143.842 15.0389C144.058 15.0125 144.278 15 144.501 15C144.724 15 144.944 15.0125 145.16 15.0389C147.786 15.3431 149.818 17.4472 149.818 20C149.818 22.5528 147.786 24.6569 145.16 24.9611ZM110.338 20V30H105.021V20C105.021 17.4486 102.988 15.3431 100.362 15.0389C100.146 15.0125 99.9261 15 99.7031 15C99.4801 15 99.26 15.0125 99.0443 15.0389C96.4181 15.3431 94.3857 17.4486 94.3857 20V30H89.0683V0H94.3857V11.3375C95.2099 10.8903 96.1035 10.5431 97.0474 10.3153C97.8967 10.1097 98.7859 10 99.7031 10C100.62 10 101.51 10.1097 102.359 10.3153C103.303 10.5431 104.196 10.8903 105.021 11.3375C105.743 11.7306 106.41 12.2014 107.013 12.7375C107.758 13.4 108.399 14.1611 108.916 15C109.819 16.4708 110.338 18.1792 110.338 20Z" fill="#1D1F1D"/>
</g>
<defs>
<clipPath id="clip0_22_57">
<rect width="200" height="30" fill="white"/>
</clipPath>
</defs>
</svg>
